<?xml version="1.0" standalone="no"?>
<!DOCTYPE svg PUBLIC "-//W3C//DTD SVG 20010904//EN"
 "http://www.w3.org/TR/2001/REC-SVG-20010904/DTD/svg10.dtd">
<svg version="1.0" xmlns="http://www.w3.org/2000/svg"
 width="500.000000pt" height="500.000000pt" viewBox="0 0 500.000000 500.000000"
 preserveAspectRatio="xMidYMid meet">
<metadata>
Created by potrace 1.11, written by Peter Selinger 2001-2013
</metadata>
<g transform="translate(0.000000,500.000000) scale(0.100000,-0.100000)"
fill="#000000" stroke="none">
<path d="M0 2500 l0 -2500 2500 0 2500 0 0 2500 0 2500 -2500 0 -2500 0 0
-2500z m2598 2183 c-16 -2 -40 -2 -55 0 -16 2 -3 4 27 4 30 0 43 -2 28 -4z
m148 -19 c36 -9 63 -18 61 -20 -2 -3 -40 4 -83 15 -43 11 -71 20 -61 20 10 1
47 -6 83 -15z m-466 -28 c0 -2 -13 -9 -30 -15 -35 -12 -41 -5 -7 9 25 10 37
12 37 6z m581 -12 c17 -8 38 -13 47 -9 9 3 13 3 9 -1 -4 -4 19 -24 51 -45 60
-40 78 -48 66 -26 -10 16 20 -7 68 -52 20 -19 35 -38 31 -43 -6 -11 47 -69 58
-63 13 9 80 -96 110 -174 16 -42 34 -83 38 -92 5 -9 15 -69 22 -133 9 -89 9
-120 1 -128 -15 -15 -15 -31 -1 -22 12 7 12 -1 -9 -135 -5 -33 -15 -57 -25
-63 -10 -5 -17 -14 -17 -19 0 -6 5 -7 12 -3 8 5 9 2 4 -12 -5 -10 -16 -41 -26
-67 -9 -27 -27 -61 -39 -75 -12 -15 -19 -21 -15 -13 5 10 3 12 -5 7 -7 -5 -10
-14 -7 -21 6 -16 -22 -57 -35 -50 -5 3 -6 0 -3 -8 3 -9 -18 -39 -57 -79 -34
-34 -56 -55 -49 -45 7 10 8 17 2 17 -13 0 -33 -25 -26 -33 3 -3 -9 -19 -28
-36 -33 -31 -55 -41 -42 -20 4 7 1 10 -7 7 -8 -3 -14 -11 -14 -19 0 -8 -10
-14 -25 -14 -15 0 -24 -5 -22 -13 1 -8 -2 -11 -7 -8 -14 9 -42 -5 -34 -17 4
-6 0 -8 -9 -5 -8 4 -20 -2 -26 -13 -7 -10 -20 -19 -30 -19 -14 0 -15 2 -2 10
22 14 8 12 -75 -10 -40 -11 -105 -23 -144 -26 -48 -5 -68 -10 -64 -18 5 -8 2
-7 -8 0 -8 7 -23 14 -34 16 -11 2 22 7 73 11 270 20 498 151 637 366 82 126
121 248 131 401 21 326 -153 626 -450 773 -39 20 -67 36 -63 36 4 1 22 -6 38
-15z m-196 -4 c17 -4 24 -8 17 -9 -10 -1 -13 -24 -10 -102 l3 -101 -29 6 c-16
3 -61 6 -100 6 -39 0 -66 4 -59 8 6 4 19 26 28 48 14 35 14 49 5 85 -7 24 -17
50 -22 57 -8 9 5 12 63 11 41 -1 88 -5 104 -9z m-514 -47 c-35 -21 -82 -53
-105 -71 l-41 -34 44 41 c42 39 136 100 156 101 5 0 -19 -17 -54 -37z m138
-85 c18 -39 41 -78 50 -87 16 -16 13 -19 -48 -52 l-66 -35 -2 50 c-2 43 -7 54
-36 81 -45 40 -42 63 12 92 24 12 47 23 50 22 3 0 21 -32 40 -71z m682 2 c-18
-11 -102 -151 -96 -160 9 -15 -7 -12 -29 5 -11 8 -14 15 -8 15 14 0 105 136
105 156 0 9 5 9 18 1 10 -6 14 -14 10 -17z m-1101 -192 c-44 -68 -60 -87 -40
-48 17 33 70 110 75 110 3 0 -13 -28 -35 -62z m145 -85 c22 -8 52 -15 68 -15
25 -1 26 -3 14 -22 -8 -12 -19 -31 -26 -44 -12 -23 -13 -23 -46 22 -28 35 -43
46 -77 52 -24 5 -49 8 -55 7 -17 -1 -17 -3 13 51 l26 46 22 -42 c16 -31 32
-45 61 -55z m1201 10 c10 -21 20 -42 22 -47 3 -5 0 -6 -6 -2 -11 6 -112 -47
-153 -81 -13 -11 -18 -8 -33 23 -9 20 -16 37 -14 38 65 28 158 83 158 93 0 22
8 14 26 -24z m-1425 -84 c-5 -13 -10 -19 -10 -12 -1 15 10 45 15 40 3 -2 0
-15 -5 -28z m-34 -121 c-3 -8 -6 -5 -6 6 -1 11 2 17 5 13 3 -3 4 -12 1 -19z
m333 -24 c63 -13 177 -44 253 -68 125 -40 138 -42 147 -27 5 9 24 25 42 35 43
23 77 11 102 -36 23 -42 16 -79 -20 -115 -25 -25 -62 -28 -104 -9 -19 8 -120
-78 -120 -103 0 -24 -27 -46 -73 -61 -20 -6 -60 -29 -89 -51 -28 -21 -54 -37
-56 -35 -2 2 17 23 43 47 26 24 58 62 72 86 27 46 53 66 75 58 8 -3 37 16 66
42 43 40 51 52 46 74 -5 25 -15 28 -182 69 -176 42 -356 100 -376 120 -12 12
-2 10 174 -26z m-363 -16 c-3 -8 -6 -5 -6 6 -1 11 2 17 5 13 3 -3 4 -12 1 -19z
m21 -9 c-1 -17 -7 -33 -12 -36 -5 -4 -6 4 -3 18 4 13 7 30 7 37 0 6 2 12 5 12
3 0 4 -14 3 -31z m103 -41 c30 -13 44 -14 85 -5 27 6 52 16 56 21 4 6 8 -24 8
-66 l0 -77 -32 10 c-18 5 -63 9 -100 9 -39 0 -68 4 -68 10 0 6 38 10 95 10 52
0 95 4 95 8 0 5 -18 17 -39 27 -33 14 -49 16 -95 8 -41 -7 -56 -7 -56 1 0 7
10 12 21 13 12 1 23 4 26 7 9 9 -8 26 -28 26 -11 0 -19 7 -19 18 0 9 4 13 8 7
4 -5 23 -17 43 -27z m1365 -43 c54 -5 73 -3 77 7 3 7 6 -12 6 -42 1 -42 -2
-51 -11 -42 -14 14 -178 17 -178 3 0 -9 80 -21 143 -21 24 0 37 -5 37 -13 0
-10 -16 -11 -77 -5 -43 5 -86 7 -95 4 -16 -4 -18 4 -18 60 0 61 1 64 23 60 12
-3 54 -8 93 -11z m-1459 -197 c-3 -8 -6 -5 -6 6 -1 11 2 17 5 13 3 -3 4 -12 1
-19z m307 -81 c51 -98 51 -97 35 -97 -11 0 -113 -80 -135 -106 -8 -10 -13 -8
-23 8 -8 14 -9 18 -1 13 7 -4 28 9 51 31 34 33 37 39 22 45 -14 5 -7 10 25 19
41 13 55 35 28 46 -8 3 -50 -13 -94 -35 -64 -32 -81 -37 -86 -26 -3 8 -2 14 3
12 11 -3 161 76 161 86 0 14 -21 7 -99 -33 -43 -21 -81 -36 -85 -33 -10 10 -7
23 6 23 17 0 158 74 158 83 0 13 -19 7 -100 -32 -48 -24 -80 -35 -80 -27 0 6
36 30 80 51 46 22 80 45 80 54 0 20 2 17 54 -82z m1067 -38 c38 -22 74 -37 80
-33 13 8 -2 -23 -44 -87 l-29 -45 -57 59 c-31 33 -64 62 -73 66 -15 5 -13 12
14 56 17 28 33 44 35 37 3 -6 36 -30 74 -53z m-1228 -187 c25 -32 74 -85 109
-117 34 -32 62 -63 60 -68 -1 -5 2 -6 8 -2 6 4 32 -6 58 -22 26 -16 62 -35 80
-42 18 -8 31 -16 28 -18 -2 -2 -21 3 -41 11 -20 9 -42 13 -48 9 -6 -4 -7 -1
-2 7 6 10 4 12 -9 7 -11 -4 -29 0 -44 11 -15 10 -36 22 -47 26 -14 5 -16 9 -7
15 10 6 0 20 -34 49 -25 23 -51 39 -55 36 -5 -3 -8 0 -7 7 2 7 -4 14 -12 14
-8 1 -14 7 -12 14 1 6 -17 38 -42 69 -43 56 -106 177 -106 203 0 8 18 -23 40
-68 21 -46 59 -109 83 -141z m54 100 c-24 -9 -36 -20 -33 -29 9 -21 -2 -15
-15 10 -6 12 -8 19 -5 15 4 -3 22 0 39 7 18 8 37 14 42 14 6 -1 -7 -8 -28 -17z
m267 -66 c17 -12 46 -31 64 -40 25 -13 31 -20 23 -30 -14 -16 -54 -146 -53
-169 1 -15 -7 -13 -56 14 -76 42 -120 77 -106 87 20 13 96 141 89 152 -11 17
7 11 39 -14z m613 -32 c-9 -9 92 -155 103 -149 6 4 10 4 10 1 0 -5 -94 -56
-104 -56 -2 0 -2 9 1 21 4 14 8 17 13 9 6 -9 13 -9 29 -1 21 12 21 12 -11 59
-31 45 -32 46 -38 22 -5 -22 -8 -19 -18 23 -7 26 -18 47 -25 47 -14 1 22 30
37 30 5 0 7 -3 3 -6z m-253 -84 c-12 -12 11 -157 28 -177 8 -10 -7 -13 -70
-13 l-81 0 10 30 c6 16 9 61 7 100 l-3 70 60 0 c40 0 56 -3 49 -10z m263 -62
c-3 -8 -6 -5 -6 6 -1 11 2 17 5 13 3 -3 4 -12 1 -19z m-517 -148 c36 -10 55
-19 43 -19 -12 -1 -33 3 -47 8 -17 7 -26 6 -30 -2 -5 -9 -7 -9 -12 1 -3 6 -9
10 -13 8 -4 -3 -8 1 -8 9 0 8 1 15 1 15 1 -1 30 -9 66 -20z m128 -27 c-10 -2
-28 -2 -40 0 -13 2 -5 4 17 4 22 1 32 -1 23 -4z m-71 -9 c-3 -3 -12 -4 -19 -1
-8 3 -5 6 6 6 11 1 17 -2 13 -5z m-1499 -1671 l3 -53 -80 0 -81 0 0 -210 0
-210 -70 0 -70 0 0 210 0 210 -75 0 -75 0 0 55 0 55 223 -2 222 -3 3 -52z
m242 -208 l0 -265 -65 0 -64 0 -3 261 c-2 143 -1 263 1 265 2 2 33 4 68 4 l63
0 0 -265z m373 107 c39 -84 72 -150 75 -148 2 3 35 72 72 153 l68 148 71 3 71
3 0 -266 0 -265 -55 0 -55 0 0 167 c0 92 -4 163 -8 158 -5 -6 -35 -70 -67
-142 l-57 -133 -43 0 -42 0 -59 137 -59 137 -3 -162 -2 -162 -60 0 -60 0 0
265 0 266 72 -3 71 -3 70 -153z m932 103 l0 -50 -137 -3 -138 -3 0 -49 0 -49
123 -3 122 -3 3 -52 3 -53 -125 0 -126 0 0 -50 0 -50 140 0 140 0 0 -55 0 -55
-210 0 -210 0 0 258 c0 142 3 262 7 266 4 3 97 5 207 4 l201 -3 0 -50z m283
-157 l2 -208 110 0 110 0 0 -55 0 -55 -180 0 -180 0 0 258 c0 142 3 262 7 266
4 4 34 6 68 4 l60 -3 3 -207z m472 -53 l0 -265 -65 0 -64 0 -3 261 c-2 143 -1
263 1 265 2 2 33 4 68 4 l63 0 0 -265z m395 100 l120 -160 3 163 2 162 60 0
60 0 0 -265 0 -265 -58 0 -58 0 -119 160 -120 161 -3 -161 -2 -160 -60 0 -60
0 0 265 0 266 57 -3 57 -3 121 -160z m537 50 l3 -116 82 93 c131 150 114 138
193 138 39 0 70 -3 70 -7 0 -5 -41 -53 -90 -108 -49 -55 -90 -103 -90 -108 0
-4 42 -69 93 -145 50 -75 96 -142 100 -149 6 -10 -10 -13 -71 -13 l-79 0 -68
100 c-38 55 -72 100 -75 100 -4 0 -21 -18 -38 -39 -28 -35 -32 -47 -32 -100
l0 -61 -65 0 -65 0 0 265 0 265 65 0 64 0 3 -115z m-2557 -817 c26 -12 30 -24
16 -47 -7 -10 -13 -11 -30 -2 -24 13 -83 17 -99 7 -31 -19 1 -58 62 -75 87
-23 114 -95 55 -145 -23 -19 -42 -26 -75 -26 -79 0 -146 42 -115 73 8 8 18 7
40 -6 39 -23 107 -23 119 1 15 28 4 39 -67 67 -49 18 -71 33 -80 51 -17 38
-14 53 18 85 25 24 38 29 80 29 27 0 62 -5 76 -12z m175 -138 l0 -150 -25 0
-25 0 0 150 0 150 25 0 25 0 0 -150z m240 43 l80 -106 0 106 0 107 25 0 25 0
0 -150 0 -150 -24 0 c-19 0 -41 23 -103 106 l-78 105 -3 -105 c-3 -105 -3
-106 -27 -106 l-25 0 0 150 0 150 25 0 c20 0 41 -21 105 -107z m463 83 c25
-17 26 -20 12 -36 -15 -16 -18 -16 -55 2 -50 25 -91 17 -125 -24 -58 -69 -13
-168 77 -168 24 0 53 6 64 14 19 14 44 5 44 -15 0 -20 -66 -49 -110 -49 -157
0 -209 211 -70 283 43 22 123 19 163 -7z m317 4 c0 -18 -7 -20 -80 -20 l-80 0
0 -45 0 -45 75 0 c68 0 75 -2 75 -20 0 -18 -7 -20 -75 -20 l-75 0 0 -40 0 -39
83 -3 c76 -3 82 -5 85 -25 3 -23 2 -23 -107 -23 l-111 0 0 150 0 150 105 0
c98 0 105 -1 105 -20z m268 -32 c-2 -40 -7 -52 -20 -54 -15 -2 -18 6 -18 52 0
48 2 54 21 54 18 0 20 -5 17 -52z m292 38 c0 -8 -28 -76 -61 -150 -54 -119
-65 -136 -85 -136 -13 0 -24 4 -24 9 0 5 25 62 55 126 60 127 59 129 -16 123
-37 -2 -45 -7 -47 -25 -2 -15 -10 -23 -23 -23 -16 0 -19 7 -19 45 l0 45 110 0
c89 0 110 -3 110 -14z m222 0 c51 -38 39 -91 -41 -178 l-52 -57 68 -3 c62 -3
68 -5 71 -25 3 -23 2 -23 -102 -23 -101 0 -106 1 -106 21 0 12 29 52 70 96 71
77 85 108 55 133 -18 15 -71 6 -96 -16 -16 -14 -18 -14 -29 5 -9 18 -6 23 22
41 38 23 114 26 140 6z"/>
<path d="M3190 4371 c0 -6 4 -13 10 -16 6 -3 7 1 4 9 -7 18 -14 21 -14 7z"/>
<path d="M3250 4281 c0 -5 5 -13 10 -16 6 -3 10 -2 10 4 0 5 -4 13 -10 16 -5
3 -10 2 -10 -4z"/>
<path d="M3265 4240 c3 -5 8 -10 11 -10 2 0 4 5 4 10 0 6 -5 10 -11 10 -5 0
-7 -4 -4 -10z"/>
<path d="M3351 3804 c0 -11 3 -14 6 -6 3 7 2 16 -1 19 -3 4 -6 -2 -5 -13z"/>
<path d="M3326 3663 c-6 -14 -5 -15 5 -6 7 7 10 15 7 18 -3 3 -9 -2 -12 -12z"/>
<path d="M3256 3483 c-6 -14 -5 -15 5 -6 7 7 10 15 7 18 -3 3 -9 -2 -12 -12z"/>
<path d="M3169 3353 c-13 -16 -12 -17 4 -4 16 13 21 21 13 21 -2 0 -10 -8 -17
-17z"/>
<path d="M3110 3290 c-8 -5 -12 -12 -9 -15 4 -3 12 1 19 10 14 17 11 19 -10 5z"/>
<path d="M3005 3200 c-3 -5 -1 -10 4 -10 6 0 11 5 11 10 0 6 -2 10 -4 10 -3 0
-8 -4 -11 -10z"/>
<path d="M2530 4601 c0 -28 17 -35 29 -12 15 27 14 31 -9 31 -13 0 -20 -7 -20
-19z"/>
<path d="M2565 4581 c-15 -34 -16 -46 -5 -90 12 -50 24 -69 33 -54 3 5 6 46 8
92 4 96 -8 114 -36 52z"/>
<path d="M2626 4588 c-9 -36 -7 -158 3 -158 12 0 20 40 23 114 2 61 -14 88
-26 44z"/>
<path d="M2517 4455 c-7 -16 8 -29 23 -20 10 6 2 35 -10 35 -4 0 -10 -7 -13
-15z"/>
<path d="M2196 4525 c-10 -8 -24 -16 -30 -18 -7 -3 -6 -9 3 -21 8 -9 20 -15
27 -12 7 3 16 -4 19 -14 8 -24 85 -91 96 -84 5 3 -5 32 -21 65 -17 32 -28 59
-25 59 3 0 -4 9 -15 20 -24 24 -29 24 -54 5z"/>
<path d="M2238 4385 c-8 -8 2 -45 13 -45 4 0 11 5 15 11 7 12 -19 43 -28 34z"/>
<path d="M1916 4265 c-8 -22 1 -35 25 -35 24 0 24 12 0 34 -17 15 -19 16 -25
1z"/>
<path d="M2034 4165 c3 -9 6 -19 6 -21 0 -2 7 -4 16 -4 22 0 13 34 -10 38 -14
3 -17 0 -12 -13z"/>
<path d="M3131 4181 c-74 -45 -92 -61 -70 -61 21 0 151 73 151 85 -1 19 -18
14 -81 -24z"/>
<path d="M2545 3861 c-8 -15 3 -31 21 -31 9 0 14 7 12 17 -4 20 -24 28 -33 14z"/>
<path d="M1951 3901 c-11 -7 -10 -11 6 -20 22 -11 33 -6 33 16 0 15 -18 17
-39 4z"/>
<path d="M3120 3860 c0 -13 31 -19 105 -22 48 -2 60 0 60 12 0 12 -17 15 -82
17 -48 2 -83 -1 -83 -7z"/>
<path d="M3030 3575 c-10 -12 -1 -20 61 -50 76 -36 99 -42 99 -25 0 8 -128 90
-142 90 -3 0 -11 -7 -18 -15z"/>
<path d="M3060 3503 c0 -13 64 -73 78 -73 6 0 16 9 22 20 9 17 6 21 -23 34
-55 22 -77 28 -77 19z"/>
<path d="M2112 3164 c10 -10 20 -16 22 -13 3 3 -5 11 -17 18 -21 13 -21 12 -5
-5z"/>
<path d="M2166 3342 c-45 -67 -55 -92 -37 -92 7 0 52 64 94 137 4 6 3 14 -2
17 -5 3 -30 -25 -55 -62z"/>
<path d="M2214 3332 c-17 -26 -38 -59 -48 -74 -10 -16 -13 -29 -7 -32 13 -8
125 130 116 144 -12 20 -30 9 -61 -38z"/>
<path d="M2214 3264 c-36 -45 -37 -47 -19 -60 11 -8 24 -13 30 -11 8 3 42 84
44 110 2 19 -20 3 -55 -39z"/>
<path d="M2506 3288 c-2 -7 -7 -47 -10 -89 l-5 -76 45 -2 46 -1 -6 37 c-10 56
-16 73 -26 73 -5 0 -11 -10 -13 -22 -4 -20 2 52 6 76 3 15 -33 19 -37 4z m21
-140 c-3 -8 -6 -5 -6 6 -1 11 2 17 5 13 3 -3 4 -12 1 -19z"/>
</g>
</svg>
